<?xml version="1.0" encoding="UTF-8"?>
<svg id="Layer_4" data-name="Layer 4" xmlns="http://www.w3.org/2000/svg" viewBox="0 0 2433.4 1335.19">
  <defs>
    <style>
      .cls-1 {
        stroke-width: 0px;
        fill: #fff; /* Color blanco */

      }
    </style>
  </defs>
  <polygon class="cls-1" points="1872.42 186.32 2000.25 15.95 2099.01 15.95 2098.91 277.64 2059.58 277.64 2059.52 35.11 1959.14 171.29 2040.46 171.29 2040.46 207.13 1961.92 207.13 2073.99 356.5 2000.27 356.49 1872.42 186.32"/>
  <polygon class="cls-1" points="2146.58 15.95 2146.58 357.7 2298.54 357.92 2423.71 188.19 2244.57 176.85 2244.57 225.06 2324.45 225.06 2251.82 320.65 2183.63 320.65 2186.61 55.12 2313.55 55.12 2242.85 15.43 2146.58 15.95"/>
  <polygon class="cls-1" points="1962.12 208.32 1957.3 171.29 1957.81 171.29 2041.65 171.29 2041.65 209.52 1962.79 208.33 1962.12 208.32"/>
  <polygon class="cls-1" points="2184.27 338.83 2179.24 300.34 2179.78 300.34 2267.27 300.34 2267.27 340.08 2185.24 338.84 2184.27 338.83"/>
  <polygon class="cls-1" points="2081.75 34.18 2120.01 15.95 2120.01 277.64 2081.78 277.64 2081.75 34.18"/>
  <polygon class="cls-1" points="2160.11 44.48 2198.37 25.18 2198.37 302.27 2160.14 302.27 2160.11 44.48"/>
  <polygon class="cls-1" points="1945.74 186.73 1957.49 171.38 1964.46 208.33 1962.3 208.29 1945.74 186.73"/>
  <polygon class="cls-1" points="2244.57 212.59 2244.57 176.85 2433.4 175.38 2401.94 216.45 2244.57 212.59"/>
  <polygon class="cls-1" points="2151.45 356.89 2151.45 319.71 2251.94 319.71 2224.48 356.89 2151.45 356.89"/>
  <polygon class="cls-1" points="2389.88 102.59 2282.72 97.63 2199.76 15.58 2291.35 15.43 2389.88 102.59"/>
  <polygon class="cls-1" points="2384.56 101.51 2292.1 97.63 2209.14 15.58 2300.73 15.43 2384.56 101.51"/>
  <rect class="cls-1" x="2079.75" y="15.95" width="40.27" height="11.83"/>
</svg>